<mxfile host="65bd71144e">
    <diagram id="2K3Uk_3NQG44djGO0lo0" name="Page-1">
        <mxGraphModel dx="1716" dy="1369" grid="1" gridSize="10" guides="1" tooltips="1" connect="1" arrows="1" fold="1" page="1" pageScale="1" pageWidth="827" pageHeight="1169" math="0" shadow="0">
            <root>
                <mxCell id="0"/>
                <mxCell id="1" parent="0"/>
                <mxCell id="3" value="" style="rounded=0;whiteSpace=wrap;html=1;fontSize=8;" vertex="1" parent="1">
                    <mxGeometry x="220" y="100" width="338" height="600" as="geometry"/>
                </mxCell>
                <mxCell id="4" value="" style="rounded=0;whiteSpace=wrap;html=1;" vertex="1" parent="1">
                    <mxGeometry x="220" y="100" width="338" height="50" as="geometry"/>
                </mxCell>
                <mxCell id="5" value="&lt;p style=&quot;line-height: 0.7&quot;&gt;----&lt;br&gt;----&lt;br&gt;----&lt;/p&gt;" style="text;html=1;strokeColor=none;fillColor=none;align=center;verticalAlign=middle;whiteSpace=wrap;rounded=0;" vertex="1" parent="1">
                    <mxGeometry x="230" y="108" width="30" height="30" as="geometry"/>
                </mxCell>
                <mxCell id="6" value="}{" style="text;html=1;strokeColor=none;fillColor=none;align=center;verticalAlign=middle;whiteSpace=wrap;rounded=0;fontSize=26;fontStyle=1" vertex="1" parent="1">
                    <mxGeometry x="364" y="107" width="60" height="30" as="geometry"/>
                </mxCell>
                <mxCell id="7" value="" style="ellipse;whiteSpace=wrap;html=1;aspect=fixed;fontSize=28;" vertex="1" parent="1">
                    <mxGeometry x="513" y="110" width="30" height="30" as="geometry"/>
                </mxCell>
                <mxCell id="8" value="" style="rounded=0;whiteSpace=wrap;html=1;fontSize=21;" vertex="1" parent="1">
                    <mxGeometry x="261.5" y="230" width="218.5" height="20" as="geometry"/>
                </mxCell>
                <mxCell id="9" value="Name" style="text;html=1;strokeColor=none;fillColor=none;align=left;verticalAlign=middle;whiteSpace=wrap;rounded=0;fontSize=12;fontStyle=1" vertex="1" parent="1">
                    <mxGeometry x="261.5" y="200" width="100" height="32" as="geometry"/>
                </mxCell>
                <mxCell id="10" value="Email address" style="text;html=1;strokeColor=none;fillColor=none;align=left;verticalAlign=middle;whiteSpace=wrap;rounded=0;fontSize=12;fontStyle=1" vertex="1" parent="1">
                    <mxGeometry x="261.5" y="258" width="151" height="30" as="geometry"/>
                </mxCell>
                <mxCell id="11" value="Password" style="text;html=1;strokeColor=none;fillColor=none;align=left;verticalAlign=middle;whiteSpace=wrap;rounded=0;fontSize=12;fontStyle=1" vertex="1" parent="1">
                    <mxGeometry x="260" y="320" width="154.62" height="30" as="geometry"/>
                </mxCell>
                <mxCell id="15" value="" style="rounded=0;whiteSpace=wrap;html=1;fontSize=21;" vertex="1" parent="1">
                    <mxGeometry x="260" y="288" width="221" height="22" as="geometry"/>
                </mxCell>
                <mxCell id="16" value="" style="rounded=0;whiteSpace=wrap;html=1;fontSize=21;fillColor=#969696;" vertex="1" parent="1">
                    <mxGeometry x="260" y="350" width="221" height="20" as="geometry"/>
                </mxCell>
                <mxCell id="17" value="&lt;b style=&quot;font-size: 26px;&quot;&gt;Code&amp;nbsp; &amp;nbsp;unt&lt;/b&gt;" style="text;html=1;strokeColor=none;fillColor=none;align=center;verticalAlign=middle;whiteSpace=wrap;rounded=0;fontSize=26;" vertex="1" parent="1">
                    <mxGeometry x="266.38" y="111" width="230" height="30" as="geometry"/>
                </mxCell>
                <mxCell id="18" value="User Settings" style="text;html=1;align=center;verticalAlign=middle;resizable=0;points=[];autosize=1;strokeColor=none;fillColor=none;fontSize=20;fontStyle=1" vertex="1" parent="1">
                    <mxGeometry x="236.44000000000005" y="170" width="140" height="30" as="geometry"/>
                </mxCell>
                <mxCell id="19" value="Subscriptions" style="text;html=1;align=center;verticalAlign=middle;resizable=0;points=[];autosize=1;strokeColor=none;fillColor=none;fontSize=12;fontStyle=1" vertex="1" parent="1">
                    <mxGeometry x="252.07000000000005" y="400" width="100" height="20" as="geometry"/>
                </mxCell>
                <mxCell id="20" value="&lt;u style=&quot;font-size: 12px;&quot;&gt;LeetCode&lt;/u&gt;" style="text;html=1;align=center;verticalAlign=middle;resizable=0;points=[];autosize=1;strokeColor=none;fillColor=none;fontSize=12;" vertex="1" parent="1">
                    <mxGeometry x="328.13" y="435" width="70" height="20" as="geometry"/>
                </mxCell>
                <mxCell id="21" value="" style="ellipse;whiteSpace=wrap;html=1;aspect=fixed;fontSize=18;" vertex="1" parent="1">
                    <mxGeometry x="276.75" y="430" width="30" height="30" as="geometry"/>
                </mxCell>
                <mxCell id="22" value="&lt;u style=&quot;font-size: 12px;&quot;&gt;HackerRank&lt;/u&gt;" style="text;html=1;align=center;verticalAlign=middle;resizable=0;points=[];autosize=1;strokeColor=none;fillColor=none;fontSize=12;" vertex="1" parent="1">
                    <mxGeometry x="327.25" y="480" width="80" height="20" as="geometry"/>
                </mxCell>
                <mxCell id="24" value="&lt;u style=&quot;font-size: 12px;&quot;&gt;Kaggle&lt;/u&gt;" style="text;html=1;align=center;verticalAlign=middle;resizable=0;points=[];autosize=1;strokeColor=none;fillColor=none;fontSize=12;" vertex="1" parent="1">
                    <mxGeometry x="330.82000000000005" y="520" width="50" height="20" as="geometry"/>
                </mxCell>
                <mxCell id="26" value="Manage" style="text;html=1;align=center;verticalAlign=middle;resizable=0;points=[];autosize=1;strokeColor=none;fillColor=none;fontSize=12;" vertex="1" parent="1">
                    <mxGeometry x="475.94000000000005" y="390" width="60" height="20" as="geometry"/>
                </mxCell>
                <mxCell id="27" value="" style="ellipse;whiteSpace=wrap;html=1;aspect=fixed;fontSize=18;" vertex="1" parent="1">
                    <mxGeometry x="276.75" y="470" width="30" height="30" as="geometry"/>
                </mxCell>
                <mxCell id="28" value="" style="ellipse;whiteSpace=wrap;html=1;aspect=fixed;fontSize=18;" vertex="1" parent="1">
                    <mxGeometry x="276.75" y="510" width="30" height="30" as="geometry"/>
                </mxCell>
                <mxCell id="29" value="Email notifications" style="text;html=1;align=center;verticalAlign=middle;resizable=0;points=[];autosize=1;strokeColor=none;fillColor=none;fontSize=12;fontStyle=1" vertex="1" parent="1">
                    <mxGeometry x="256.44000000000005" y="564.71" width="120" height="20" as="geometry"/>
                </mxCell>
                <mxCell id="30" value="" style="rounded=0;whiteSpace=wrap;html=1;fontSize=20;" vertex="1" parent="1">
                    <mxGeometry x="273.32000000000005" y="600" width="57.5" height="20" as="geometry"/>
                </mxCell>
                <mxCell id="31" value="" style="endArrow=none;html=1;rounded=0;fontSize=20;exitX=0.5;exitY=0;exitDx=0;exitDy=0;entryX=0.5;entryY=1;entryDx=0;entryDy=0;" edge="1" parent="1" source="30" target="30">
                    <mxGeometry width="50" height="50" relative="1" as="geometry">
                        <mxPoint x="603.3200000000002" y="450" as="sourcePoint"/>
                        <mxPoint x="653.3200000000002" y="400" as="targetPoint"/>
                    </mxGeometry>
                </mxCell>
                <mxCell id="32" value="OFF" style="text;html=1;align=center;verticalAlign=middle;resizable=0;points=[];autosize=1;strokeColor=none;fillColor=none;fontSize=10;" vertex="1" parent="1">
                    <mxGeometry x="296.43999999999994" y="600" width="40" height="20" as="geometry"/>
                </mxCell>
                <mxCell id="33" value="" style="rounded=0;whiteSpace=wrap;html=1;fontSize=20;fillColor=#707070;" vertex="1" parent="1">
                    <mxGeometry x="273.32000000000005" y="600" width="27.5" height="20" as="geometry"/>
                </mxCell>
                <mxCell id="34" value="Edit" style="text;html=1;align=center;verticalAlign=middle;resizable=0;points=[];autosize=1;strokeColor=none;fillColor=none;fontSize=12;" vertex="1" parent="1">
                    <mxGeometry x="496.5" y="207" width="40" height="20" as="geometry"/>
                </mxCell>
                <mxCell id="35" value="Edit" style="text;html=1;align=center;verticalAlign=middle;resizable=0;points=[];autosize=1;strokeColor=none;fillColor=none;fontSize=12;" vertex="1" parent="1">
                    <mxGeometry x="496.3800000000001" y="263" width="40" height="20" as="geometry"/>
                </mxCell>
                <mxCell id="36" value="Reset" style="text;html=1;align=center;verticalAlign=middle;resizable=0;points=[];autosize=1;strokeColor=none;fillColor=none;fontSize=12;" vertex="1" parent="1">
                    <mxGeometry x="486.38" y="330" width="50" height="20" as="geometry"/>
                </mxCell>
                <mxCell id="40" value="[ Sign out ]" style="text;html=1;align=center;verticalAlign=middle;resizable=0;points=[];autosize=1;strokeColor=none;fillColor=none;fontSize=12;fontStyle=1" vertex="1" parent="1">
                    <mxGeometry x="356.5" y="645" width="80" height="20" as="geometry"/>
                </mxCell>
            </root>
        </mxGraphModel>
    </diagram>
</mxfile>